# AST/ASF file generated using VICON BodyLanguage
# -----------------------------------------------
:version 1.10
:name VICON
:units
  mass 1.0
  length 0.45
  angle deg
:documentation
   .ast/.asf automatically generated from VICON data using
   VICON BodyBuilder and BodyLanguage model FoxedUp or BRILLIANT.MOD
:root
   order TX TY TZ RX RY RZ
   axis XYZ
   position 0 0 0  
   orientation 0 0 0 
:bonedata
  begin
     id 1 
     name lhipjoint
     direction 0.541323 -0.757556 0.364798 
     length 2.47576 
     axis 0 0 0  XYZ
  end
  begin
     id 2 
     name lfemur
     direction 0.34202 -0.939693 0  
     length 7.46493  
     axis 0 0 20  XYZ
    dof rx ry rz
    limits (-160.0 20.0)
           (-70.0 70.0)
           (-60.0 70.0)
  end
  begin
     id 3 
     name ltibia
     direction 0.34202 -0.939693 0   
     length 7.73805   
     axis 0 0 20   XYZ
    dof rx
    limits (-10.0 170.0)
  end
  begin
     id 4 
     name lfoot
     direction 0.107174 -0.294458 0.949636   
     length 2.25864   
     axis -90 7.62852e-016 20   XYZ
    dof rx rz
    limits (-45.0 90.0)
           (-70.0 20.0)
  end
  begin
     id 5 
     name ltoes
     direction 1.53606e-011 -4.21934e-011 1   
     length 1.12451   
     axis -90 7.62852e-016 20   XYZ
    dof rx
    limits (-90.0 20.0)
  end
  begin
     id 6 
     name rhipjoint
     direction -0.524745 -0.766967 0.36933   
     length 2.44538  
     axis 0 0 0  XYZ 
  end
  begin
     id 7 
     name rfemur
     direction -0.34202 -0.939693 0   
     length 7.61604   
     axis 0 0 -20   XYZ
    dof rx ry rz
    limits (-160.0 20.0)
           (-70.0 70.0)
           (-70.0 60.0)
  end
  begin
     id 8 
     name rtibia
     direction -0.34202 -0.939693 0   
     length 7.61056   
     axis 0 0 -20   XYZ
    dof rx
    limits (-10.0 170.0)
 end
 begin
     id 9 
     name rfoot
     direction -0.12616 -0.346623 0.929482   
     length 2.46372  
     axis -90 -7.62852e-016 -20   XYZ
    dof rx rz
    limits (-45.0 90.0)
           (-20.0 70.0)
  end
  begin
     id 10 
     name rtoes
     direction -1.53531e-011 -4.22004e-011 1   
     length 1.21611   
     axis -90 -7.62852e-016 -20   XYZ
    dof rx
    limits (-90.0 20.0)
  end
  begin
     id 11 
     name lowerback
     direction -0.000778023 0.997293 -0.0735223   
     length 2.06139   
     axis 0 0 0   XYZ
    dof rx ry rz
    limits (-20.0 45.0)
           (-30.0 30.0)
           (-30.0 30.0)
  end
  begin
     id 12 
     name upperback
     direction 0.0222598 0.999722 -0.0078355   
     length 2.06383   
     axis 0 0 0   XYZ
    dof rx ry rz
    limits (-20.0 45.0)
           (-30.0 30.0)
           (-30.0 30.0)
  end
  begin
     id 13 
     name thorax
     direction 0.0219654 0.999405 0.0265994   
     length 2.07163   
     axis 0 0 0   XYZ
    dof rx ry rz
    limits (-20.0 45.0)
           (-30.0 30.0)
           (-30.0 30.0)
  end
  begin
     id 14 
     name lowerneck
     direction 0.0213282 0.988147 0.15202   
     length 1.75969   
     axis 0 0 0   XYZ
    dof rx ry rz
    limits (-20.0 45.0)
           (-30.0 30.0)
           (-30.0 30.0)
  end
  begin
     id 15 
     name upperneck
     direction -0.0546456 0.982624 -0.177379   
     length 1.79244   
     axis 0 0 0   XYZ
    dof rx ry rz
    limits (-20.0 45.0)
           (-30.0 30.0)
           (-30.0 30.0)
  end
  begin
     id 16
     name head
     direction -0.0199987 0.996855 -0.076686  
     length 1.80555  
     axis 0 0 0   XYZ
    dof rx ry rz
    limits (-20.0 45.0)
           (-30.0 30.0)
           (-30.0 30.0)
  end
  begin
     id 17 
     name lclavicle
     direction 0.929565 0.363219 -0.063096  
     length 3.55722  
     axis 0 0 0   XYZ
    dof ry rz
    limits (-20.0 10.0)
           (0.0 20.0)
  end
  begin
     id 18 
     name lhumerus
     direction 1 -4.48993e-011 -2.36203e-027   
     length 4.92785   
     axis 180 -30 -90   XYZ
    dof rx ry rz
    limits (-60.0 90.0)
           (-90.0 90.0)
           (-90.0 90.0)
  end
  begin
     id 19
     name lradius
     direction 1 -4.48947e-011 2.02997e-027   
     length 3.44052   
     axis 180 -30 -90   XYZ
    dof rx
    limits (-10.0 170.0)
  end
  begin
     id 20
     name lwrist
     direction 1 -4.48962e-011 1.45991e-027   
     length 1.72026   
     axis 1.49639e-024 90 90   XYZ
    dof ry
    limits (-180.0 0.0)
 end
  begin
     id 21 
     name lhand
     direction 1 -4.48984e-011 2.91906e-027   
     length 0.654326   
     axis -1.863e-015 90 90   XYZ
    dof rx rz
    limits (-90.0 90.0)
           (-45.0 45.0)
  end
  begin
     id 22 
     name lfingers
     direction 1 -4.48961e-011 5.83968e-027   
     length 0.527534   
     axis -3.72598e-015 90 90   XYZ
    dof rx
    limits (0.0 90.0)
  end
  begin
     id 23
     name lthumb
     direction 0.707107 -6.34963e-011 0.707107   
     length 0.757437   
     axis -90 45 -6.68868e-015   XYZ
    dof rx rz
    limits (-45.0 45.0)
           (-45.0 45.0)
  end
  begin
     id 24 
     name rclavicle
     direction -0.902944 0.422599 -0.0781198   
     length 3.54432  
     axis 0 0 0   XYZ 
    dof ry rz
    limits (-10.0 20.0)
           (-20.0 0.0)
  end
  begin
     id 25 
     name rhumerus
     direction -1 -4.48953e-011 -4.75835e-028  
     length 5.09181   
     axis 180 30 90   XYZ
    dof rx ry rz
    limits (-90.0 60.0)
           (-90.0 90.0)
           (-90.0 90.0)
  end
  begin
     id 26 
     name rradius
     direction -1 -4.48986e-011 -3.25889e-027   
     length 3.49865   
     axis 180 30 90   XYZ
    dof rx
    limits (-10.0 170.0)
  end
  begin
     id 27 
     name rwrist
     direction -1 -4.48963e-011 1.45989e-027   
     length 1.74933   
     axis 1.49639e-024 -90 -90   XYZ
    dof ry
    limits (-180.0 0.0)
  end
  begin
     id 28
     name rhand
     direction -1 -4.49003e-011 2.91844e-027   
     length 0.66641   
     axis -1.863e-015 -90 -90   XYZ
    dof rx rz
    limits (-90.0 90.0)
           (-45.0 45.0)
  end
  begin
     id 29
     name rfingers
     direction -1 -4.48973e-011 5.83886e-027   
     length 0.537277   
     axis -3.72598e-015 -90 -90   XYZ
    dof rx
    limits (0.0 90.0)
  end
  begin
     id 30
     name rthumb
     direction -0.707107 -6.34976e-011 0.707107   
     length 0.771425   
     axis -90 -45 6.68868e-015   XYZ
    dof rx rz
    limits (-45.0 45.0)
           (-45.0 45.0)
  end
:hierarchy
  begin
    root lhipjoint rhipjoint lowerback
    lhipjoint lfemur
    lfemur ltibia
    ltibia lfoot
    lfoot ltoes
    rhipjoint rfemur
    rfemur rtibia
    rtibia rfoot
    rfoot rtoes
    lowerback upperback
    upperback thorax
    thorax lowerneck lclavicle rclavicle
    lowerneck upperneck
    upperneck head
    lclavicle lhumerus
    lhumerus lradius
    lradius lwrist
    lwrist lhand lthumb
    lhand lfingers
    rclavicle rhumerus
    rhumerus rradius
    rradius rwrist
    rwrist rhand rthumb
    rhand rfingers
  end

#!OML:ASF H:\LiuWeirdWalks\Patient Classification 1\Patient 1\Session 1\male.ASF
:FULLY-SPECIFIED
:DEGREES
120
root 1.53602 17.808 -27.9609 0.922386 6.37543 -1.45422
lowerback 10.2652 -2.44892 -9.76175
upperback 1.01816 -4.15171 4.73961
thorax -3.62445 -1.91025 11.1907
lowerneck -22.7567 4.93888 4.86295
upperneck 29.3499 7.14702 -5.3881
head 14.2644 2.85588 -1.65187
rclavicle -6.65929e-015 -9.54166e-015
rhumerus -38.1774 7.99875 -74.9008
rradius 43.7405
rwrist -8.85465
rhand -10.9122 4.22939
rfingers 7.12502
rthumb 15.1051 -25.1994
lclavicle -6.65929e-015 -9.54166e-015
lhumerus -35.1204 16.4219 82.5005
lradius 27.7531
lwrist 1.42052
lhand -15.3165 0.183858
lfingers 7.12502
lthumb 10.8594 29.8831
rfemur -27.0627 -10.873 10.8127
rtibia 74.095
rfoot 7.1897 -6.36324
rtoes -3.54039
lfemur -6.23324 3.78837 -24.6539
ltibia 26.2511
lfoot -15.9845 5.84728
ltoes -6.6328
121
root 1.5337 17.8069 -27.9477 0.974639 6.35636 -1.43242
lowerback 10.2697 -2.41884 -9.76362
upperback 1.03413 -4.11236 4.72151
thorax -3.62139 -1.89142 11.1671
lowerneck -22.7642 4.88078 4.84614
upperneck 29.3232 7.06397 -5.38254
head 14.2476 2.8194 -1.66263
rclavicle -3.23025e-015 0
rhumerus -38.2125 7.98418 -74.9719
rradius 43.8566
rwrist -8.8687
rhand -10.9453 4.21873
rfingers 7.12502
rthumb 15.0732 -25.2125
lclavicle -3.23025e-015 0
lhumerus -35.1044 16.3077 82.5233
lradius 27.754
lwrist 1.42503
lhand -15.3444 0.153327
lfingers 7.12502
lthumb 10.8326 29.854
rfemur -27.0575 -10.8768 10.7731
rtibia 74.0537
rfoot 7.19097 -6.38138
rtoes -3.54008
lfemur -6.2364 3.78779 -24.6635
ltibia 26.2558
lfoot -16.0446 5.85637
ltoes -6.63497
122
root 1.53086 17.8056 -27.9341 1.03196 6.34953 -1.40123
lowerback 10.2597 -2.39843 -9.77826
upperback 1.06066 -4.08605 4.70125
thorax -3.59475 -1.88114 11.1482
lowerneck -22.7916 4.83443 4.84495
upperneck 29.3101 6.99837 -5.39498
head 14.2439 2.78895 -1.67974
rclavicle -6.04802e-014 -2.90226e-014
rhumerus -38.2046 7.96315 -75.045
rradius 43.9366
rwrist -8.83736
rhand -10.9775 4.24781
rfingers 7.12502
rthumb 15.0422 -25.1857
lclavicle -6.04802e-014 -2.90226e-014
lhumerus -35.0606 16.2029 82.5458
lradius 27.748
lwrist 1.43911
lhand -15.363 0.114071
lfingers 7.12502
lthumb 10.8147 29.8156
rfemur -27.0532 -10.8903 10.7272
rtibia 74.0147
rfoot 7.18347 -6.40497
rtoes -3.51237
lfemur -6.24348 3.77337 -24.6807
ltibia 26.2558
lfoot -16.101 5.86232
ltoes -6.64018
123
root 1.52775 17.8042 -27.9201 1.09155 6.35628 -1.3687
lowerback 10.2485 -2.38266 -9.79315
upperback 1.08687 -4.06587 4.68032
thorax -3.56618 -1.87405 11.1292
lowerneck -22.7377 4.88172 4.9357
upperneck 29.1695 7.02254 -5.38967
head 14.1762 2.81345 -1.68738
rclavicle -3.34455e-014 2.74323e-014
rhumerus -38.183 7.93595 -75.1194
rradius 43.9959
rwrist -8.79852
rhand -11.0164 4.27657
rfingers 7.12502
rthumb 15.0047 -25.1598
lclavicle -3.34455e-014 2.74323e-014
lhumerus -35.0051 16.086 82.574
lradius 27.7434
lwrist 1.48227
lhand -15.3661 0.0953706
lfingers 7.12502
lthumb 10.8116 29.7971
rfemur -27.0455 -10.9139 10.6834
rtibia 73.9767
rfoot 7.16503 -6.43225
rtoes -3.46602
lfemur -6.25217 3.74676 -24.6979
ltibia 26.2581
lfoot -16.162 5.87097
ltoes -6.67191
124
root 1.52426 17.8025 -27.9061 1.1526 6.37171 -1.34421
lowerback 10.2616 -2.37043 -9.80296
upperback 1.09728 -4.05208 4.66451
thorax -3.56648 -1.86743 11.1164
lowerneck -22.605 5.00849 5.10876
upperneck 28.9324 7.12621 -5.3786
head 14.059 2.88509 -1.69135
rclavicle -2.20651e-014 2.10712e-014
rhumerus -38.166 7.91413 -75.1959
rradius 44.034
rwrist -8.74311
rhand -11.0576 4.31342
rfingers 7.12502
rthumb 14.965 -25.1259
lclavicle -2.20651e-014 2.10712e-014
lhumerus -34.9737 15.9645 82.604
lradius 27.7503
lwrist 1.54622
lhand -15.3577 0.102809
lfingers 7.12502
lthumb 10.8198 29.8041
rfemur -27.0408 -10.9395 10.6544
rtibia 73.9425
rfoot 7.13592 -6.46352
rtoes -3.40652
lfemur -6.26835 3.70625 -24.706
ltibia 26.263
lfoot -16.2232 5.88956
ltoes -6.73005
